<svg xmlns="http://www.w3.org/2000/svg" viewBox="0 0 47.75 65.99"><defs><style>.cls-1{fill:#1e1e1c;}.cls-2{fill:#b62332;}.cls-3{isolation:isolate;}</style></defs><g id="Layer_2" data-name="Layer 2"><g id="Layer_1-2" data-name="Layer 1"><polygon class="cls-1" points="0 8.59 16.89 11.79 20.62 23.34 10.84 22.28 0 8.59"/><path class="cls-1" d="M2.35,8.55a1.34,1.34,0,0,1-.09-.26A1.31,1.31,0,0,1,2.2,8a2,2,0,0,1,0-.55,1.62,1.62,0,0,1,.16-.57,1.29,1.29,0,0,1,.39-.44,2.23,2.23,0,0,1,1-.36,4,4,0,0,1,1,0A15.09,15.09,0,0,1,8.34,7c1.15.41,2.31.89,3.43,1.38S14,9.42,15.11,10C14,9.48,12.85,9,11.7,8.55S9.39,7.7,8.21,7.34a15.21,15.21,0,0,0-3.55-.71,5,5,0,0,0-.87,0,1.55,1.55,0,0,0-.71.27,2.68,2.68,0,0,0-.18.28.92.92,0,0,0-.07.32,2.31,2.31,0,0,0,0,.37A1.91,1.91,0,0,0,3,8.27H3a.35.35,0,0,1-.13.48.34.34,0,0,1-.48-.13s0,0,0-.07Z"/><path class="cls-1" d="M3.68,4.5a1.27,1.27,0,0,1,0-.28V4a3.12,3.12,0,0,1,.11-.53,1.91,1.91,0,0,1,.3-.52,1.35,1.35,0,0,1,.5-.34,2,2,0,0,1,1.07-.07,5,5,0,0,1,.94.25A15.28,15.28,0,0,1,9.85,4.55c1,.7,2,1.46,3,2.24s1.88,1.59,2.81,2.4c-1-.76-1.94-1.53-2.92-2.25s-2-1.44-3-2.08A15.65,15.65,0,0,0,6.4,3.24a4.57,4.57,0,0,0-.85-.18,1.37,1.37,0,0,0-.77.09.72.72,0,0,0-.25.18.62.62,0,0,0-.14.28,1.77,1.77,0,0,0,0,.75h0a.37.37,0,0,1-.28.42.31.31,0,0,1-.41-.28S3.68,4.52,3.68,4.5Z"/><path class="cls-1" d="M7.59,1.64c0-.09,0-.18,0-.29s.06-.17.08-.25A2,2,0,0,1,8,.61,1.52,1.52,0,0,1,8.39.2,1.35,1.35,0,0,1,9,0a2.34,2.34,0,0,1,1,.2,4.52,4.52,0,0,1,.85.5,16.59,16.59,0,0,1,2.7,2.59c.82.94,1.55,1.94,2.28,2.93s1.42,2,2.1,3c-.73-1-1.48-2-2.24-2.93s-1.57-1.9-2.4-2.79a15.34,15.34,0,0,0-2.76-2.4A5,5,0,0,0,9.78.75,1.61,1.61,0,0,0,9,.62a1,1,0,0,0-.3.11A.76.76,0,0,0,8.52,1a1.14,1.14,0,0,0-.15.34c0,.12,0,.25-.07.37h0A.37.37,0,0,1,7.93,2a.33.33,0,0,1-.34-.37Z"/><polygon class="cls-2" points="41.78 8.59 24.89 11.79 21.16 23.34 30.93 22.28 41.78 8.59"/><path class="cls-2" d="M38.79,8.25a2.06,2.06,0,0,0,.12-.35,1.23,1.23,0,0,0,0-.38,1.32,1.32,0,0,0-.07-.32.79.79,0,0,0-.2-.25A1.43,1.43,0,0,0,38,6.69a4.17,4.17,0,0,0-.87,0,15.21,15.21,0,0,0-3.55.71c-1.18.34-2.33.78-3.49,1.23s-2.27.92-3.41,1.42c1.1-.55,2.2-1.08,3.34-1.58s2.28-1,3.43-1.39a15.44,15.44,0,0,1,3.63-.9,4,4,0,0,1,1,0,2.3,2.3,0,0,1,1,.35,1.4,1.4,0,0,1,.39.45,1.57,1.57,0,0,1,.16.56,1.77,1.77,0,0,1,0,.56.92.92,0,0,1-.07.26,1,1,0,0,1-.09.27.33.33,0,0,1-.46.18.36.36,0,0,1-.18-.47l0-.05Z"/><path class="cls-2" d="M37.42,4.38a1.22,1.22,0,0,0,0-.38,1.57,1.57,0,0,0,0-.37,1,1,0,0,0-.16-.29A.79.79,0,0,0,37,3.17a1.55,1.55,0,0,0-.77-.09,4.3,4.3,0,0,0-.85.18,15.37,15.37,0,0,0-3.25,1.61c-1.05.64-2.05,1.37-3,2.08s-2,1.5-2.92,2.26C27.07,8.39,28,7.59,29,6.81s1.94-1.53,2.95-2.24A15,15,0,0,1,35.2,2.76a3.84,3.84,0,0,1,.94-.25,2.15,2.15,0,0,1,1.07.07,1.28,1.28,0,0,1,.5.34,1.42,1.42,0,0,1,.3.5,1.91,1.91,0,0,1,.1.53v.27c0,.08,0,.19,0,.28a.35.35,0,1,1-.68-.12Z"/><path class="cls-2" d="M33.49,1.69a2.41,2.41,0,0,0-.07-.37A1.73,1.73,0,0,0,33.28,1a.67.67,0,0,0-.21-.23,1,1,0,0,0-.31-.11A1.46,1.46,0,0,0,32,.77a4.63,4.63,0,0,0-.77.39,15.35,15.35,0,0,0-2.72,2.4c-.83.89-1.63,1.83-2.4,2.79s-1.51,1.94-2.24,2.93c.68-1,1.37-2,2.1-3s1.48-2,2.28-2.91A15.36,15.36,0,0,1,31,.73a6.53,6.53,0,0,1,.85-.5A2.13,2.13,0,0,1,32.85,0a1.35,1.35,0,0,1,.57.2,1.49,1.49,0,0,1,.43.4,2.34,2.34,0,0,1,.25.5c0,.09,0,.18.07.25s0,.18,0,.29a.36.36,0,0,1-.32.39.4.4,0,0,1-.41-.36Z"/><path class="cls-2" d="M24.48,29.14a3.8,3.8,0,0,1,.32,1.55,3.91,3.91,0,1,1-7.49-1.57v-1.7L16,26.9a.41.41,0,0,0-.17.28V28l0,.07a.57.57,0,0,1-.18.77c0,.28,0,.56,0,.56.63,0,.52,3.63.52,3.6H15s-.23-3.19.55-3.6c0-.58,0-.6,0-.6s-.48-.23,0-.85c0-.84,0-1,.19-1.18l-1.37-.58v0l6.78-2.33,6.41,2.61-3,1.14Z"/><path class="cls-1" d="M34.22,24.29l-.14.26c-1.44,2.6-13.6,23.47-23.64,1.71a3.64,3.64,0,0,0-1.3,2.26C10.24,30,25.92,45.67,7.11,66c17-11.73,17.53-22.27,19-26.18C32,34.81,34.22,27.15,34.22,24.29Z"/><g class="cls-3"><path class="cls-1" d="M34.75,46.29v1.16h-.4a1.94,1.94,0,0,1-1-.27,1.67,1.67,0,0,1-1,.27h-2a4.59,4.59,0,0,0,.25,1.6,1.72,1.72,0,0,0,.57.85.6.6,0,0,1-.23.31.87.87,0,0,1-.5.14,1,1,0,0,1-1-.66,3.5,3.5,0,0,1-.31-1.48,2.61,2.61,0,0,1,.32-1.36,1.11,1.11,0,0,1,1-.54h.39l-2-2.74a1.66,1.66,0,0,1,.41-.62,2.47,2.47,0,0,1,.85-.49,3.22,3.22,0,0,1,1.25-.2,4.16,4.16,0,0,1,1.58.3,2.59,2.59,0,0,1,1.07.87,2.34,2.34,0,0,1,.37,1.28,5.07,5.07,0,0,1-.09.77,3.1,3.1,0,0,1-.27.83h.71Zm-1.88-.76a2.09,2.09,0,0,0,.16-.78,1.24,1.24,0,0,0-.21-.71,1.26,1.26,0,0,0-.59-.48,1.63,1.63,0,0,0-.78-.18,1.52,1.52,0,0,0-.93.3l1.82,2.45A1,1,0,0,0,32.87,45.53Z"/><path class="cls-1" d="M38.7,46.29v1.16H37.15a1.75,1.75,0,0,1-1.06-.37,2,2,0,0,1-.46.28,1.56,1.56,0,0,1-.52.09h-.36V46.29h.36a1.11,1.11,0,0,0,.48-.07A2.23,2.23,0,0,0,36,46V43a.76.76,0,0,1,.16-.49.75.75,0,0,1,1.06,0,.82.82,0,0,1,.16.51V45.6a.83.83,0,0,0,.13.52.37.37,0,0,0,.35.17Zm-2.52,3.35a.74.74,0,0,1-.23-.55.79.79,0,0,1,.8-.79.79.79,0,1,1-.57,1.34Z"/><path class="cls-1" d="M42.65,46.29v1.16H41.1A1.78,1.78,0,0,1,40,47.08a2,2,0,0,1-.46.28,1.46,1.46,0,0,1-.51.09H38.7V46.29h.36a1.16,1.16,0,0,0,.48-.07A1.55,1.55,0,0,0,40,46V43a.82.82,0,0,1,.16-.49.62.62,0,0,1,.54-.22.6.6,0,0,1,.53.22.82.82,0,0,1,.16.51V45.6a.91.91,0,0,0,.12.52.4.4,0,0,0,.36.17Zm-2.53-5a.74.74,0,0,1-.23-.55.71.71,0,0,1,.23-.55.75.75,0,0,1,.57-.23.73.73,0,0,1,.55.23.77.77,0,0,1,0,1.1.73.73,0,0,1-.55.23A.75.75,0,0,1,40.12,41.3Z"/><path class="cls-1" d="M46.52,42.42a1.66,1.66,0,0,1,.87.76,3.32,3.32,0,0,1,.36,1.71q0,2.58-2,2.58a2.05,2.05,0,0,1-1-.23,3.21,3.21,0,0,1-.41.16,2.85,2.85,0,0,1-.51.07H42.65V46.31h.62V45a5.26,5.26,0,0,1,.21-1.7,1.37,1.37,0,0,1,.64-.8,2.6,2.6,0,0,1,1.19-.22A3.67,3.67,0,0,1,46.52,42.42Zm-.32,3.41a3.55,3.55,0,0,0,.15-1,2.34,2.34,0,0,0-.2-1.06.7.7,0,0,0-.68-.36.94.94,0,0,0-.55.16.54.54,0,0,0-.23.48v2.26h1C45.94,46.29,46.11,46.13,46.2,45.83Z"/></g><path class="cls-2" d="M22.1,56.11a.79.79,0,0,0,0-1.57.75.75,0,0,0-.57.23.73.73,0,0,0-.23.56.74.74,0,0,0,.23.55A.77.77,0,0,0,22.1,56.11Z"/><path class="cls-2" d="M26.7,62.93a.72.72,0,0,0-.5.22.72.72,0,0,0,.5,1.21.65.65,0,0,0,.5-.22.73.73,0,0,0,.19-.49.66.66,0,0,0-.19-.5A.67.67,0,0,0,26.7,62.93Z"/><path class="cls-2" d="M24.94,62.93a.72.72,0,0,0-.5.22.72.72,0,0,0,.5,1.21.65.65,0,0,0,.5-.22.69.69,0,0,0,0-1A.68.68,0,0,0,24.94,62.93Z"/><path class="cls-2" d="M36.35,56.05a.67.67,0,0,0,.5-.21.7.7,0,0,0,.2-.5.66.66,0,0,0-.2-.49.62.62,0,0,0-.5-.22.7.7,0,0,0-.49,1.21A.67.67,0,0,0,36.35,56.05Z"/><path class="cls-2" d="M34.59,56.05a.67.67,0,0,0,.5-.21.67.67,0,0,0,0-1,.7.7,0,1,0-1,1A.7.7,0,0,0,34.59,56.05Z"/><path class="cls-2" d="M39.78,55.24a1,1,0,0,0-.77-.36.82.82,0,0,0-.48.13.8.8,0,0,0-.28.3.6.6,0,0,0-.09.28l.12.06c.07,0,.14.08.23.21a1,1,0,0,1,.13.6v3.7a1.06,1.06,0,0,1-.13.53.38.38,0,0,1-.35.18H36.64a.36.36,0,0,1-.35-.18.78.78,0,0,1-.13-.51V57.55A.83.83,0,0,0,36,57a.62.62,0,0,0-.53-.21.65.65,0,0,0-.54.21.83.83,0,0,0-.16.5v3a1.92,1.92,0,0,1-.42.25,1.35,1.35,0,0,1-.48.07H32.66a4,4,0,0,0,.21-1.4,3.41,3.41,0,0,0-.35-1.71,1.7,1.7,0,0,0-.87-.76,3.48,3.48,0,0,0-1.2-.18,2.76,2.76,0,0,0-1.19.21,1.4,1.4,0,0,0-.64.8,5.33,5.33,0,0,0-.21,1.71v1.35h-.62v0H27a.38.38,0,0,1-.36-.18.85.85,0,0,1-.12-.51V57.55a.83.83,0,0,0-.16-.52.62.62,0,0,0-.53-.21.65.65,0,0,0-.54.21.83.83,0,0,0-.16.5v3a1.55,1.55,0,0,1-.42.25,1.35,1.35,0,0,1-.48.07h-.34v0H22.81V57.48a.69.69,0,0,0-.2-.52.74.74,0,0,0-.51-.18.75.75,0,0,0-.52.18.66.66,0,0,0-.19.48v5.32a.5.5,0,0,1-.25.49,1.1,1.1,0,0,1-.6.16,1.74,1.74,0,0,1-.66-.12,1.7,1.7,0,0,1-.54-.28,1.35,1.35,0,0,0,.36,1.1,1.6,1.6,0,0,0,1.17.37,1.67,1.67,0,0,0,1.51-.62,2.37,2.37,0,0,0,.41-1.33V62h1.05v0h.36a1.46,1.46,0,0,0,.51-.09,1.73,1.73,0,0,0,.46-.29,1.79,1.79,0,0,0,1.07.38h1.55v0h1.12a2.17,2.17,0,0,0,.51-.08,1.66,1.66,0,0,0,.41-.16,2.05,2.05,0,0,0,1,.24,2.12,2.12,0,0,0,1.24-.36,1.94,1.94,0,0,0,1.12.34h.66a1.46,1.46,0,0,0,.51-.09,1.62,1.62,0,0,0,.47-.29,1.74,1.74,0,0,0,1.06.38h2.75a1.18,1.18,0,0,0,1-.5,2.09,2.09,0,0,0,.36-1.24V56.18A1.48,1.48,0,0,0,39.78,55.24Zm-8.44,5.17c-.09.3-.26.46-.51.44h-1V58.6a.52.52,0,0,1,.23-.48.94.94,0,0,1,.55-.16.71.71,0,0,1,.68.35,2.38,2.38,0,0,1,.2,1.07A3.55,3.55,0,0,1,31.34,60.41Z"/><path class="cls-2" d="M42.93,55.25a.9.9,0,0,0-.74-.37.78.78,0,0,0-.48.13.75.75,0,0,0-.29.3.88.88,0,0,0-.09.28l.13.06c.07,0,.14.08.23.21a1,1,0,0,1,.12.6v4.82a.91.91,0,0,0,.16.52.73.73,0,0,0,.55.23.62.62,0,0,0,.54-.22.82.82,0,0,0,.16-.49V56.18A1.44,1.44,0,0,0,42.93,55.25Z"/></g></g></svg>